<svg width="40" height="40" viewBox="0 0 40 40" fill="none" xmlns="http://www.w3.org/2000/svg">
<path d="M23.2657 19.8899L39.4657 3.6899C39.8297 3.26479 40.0199 2.71795 39.9983 2.15867C39.9767 1.59939 39.7449 1.06886 39.3491 0.673097C38.9534 0.277331 38.4228 0.0454805 37.8636 0.0238779C37.3043 0.00227535 36.7574 0.192512 36.3323 0.556571L20.1323 16.7566L3.93232 0.534348C3.50721 0.170289 2.96037 -0.0199453 2.40109 0.0016573C1.84181 0.0232599 1.31128 0.255109 0.915513 0.650874C0.519748 1.04664 0.287897 1.57717 0.266294 2.13645C0.244692 2.69573 0.434928 3.24257 0.798987 3.66768L16.999 19.8899L0.776764 36.0899C0.544138 36.2891 0.355204 36.5343 0.221819 36.81C0.088434 37.0857 0.0134771 37.386 0.00165595 37.692C-0.0101651 37.9981 0.0414036 38.3032 0.153125 38.5884C0.264846 38.8736 0.434309 39.1326 0.650875 39.3491C0.867441 39.5657 1.12644 39.7352 1.4116 39.8469C1.69677 39.9586 2.00195 40.0102 2.30799 39.9983C2.61404 39.9865 2.91433 39.9116 3.19003 39.7782C3.46573 39.6448 3.71088 39.4559 3.9101 39.2232L20.1323 23.0232L36.3323 39.2232C36.7574 39.5873 37.3043 39.7775 37.8636 39.7559C38.4228 39.7343 38.9534 39.5025 39.3491 39.1067C39.7449 38.7109 39.9767 38.1804 39.9983 37.6211C40.0199 37.0619 39.8297 36.515 39.4657 36.0899L23.2657 19.8899Z" fill="white"/>
</svg>
