<svg width="19" height="15" viewBox="0 0 19 15" fill="none" xmlns="http://www.w3.org/2000/svg">
<path d="M9.51354 8.46435C9.87527 8.46435 10.2008 8.29068 10.5806 7.91591L18.0233 0.457038C17.7068 0.146252 17.1099 0 16.2689 0H2.4869C1.77248 0 1.25702 0.137112 0.967632 0.420475L8.45547 7.91591C8.82625 8.29068 9.16085 8.46435 9.51354 8.46435ZM0.226082 13.5832L6.30317 7.49543L0.217039 1.42596C0.0723463 1.6819 0 2.11152 0 2.72395V12.2761C0 12.8885 0.0723463 13.3272 0.226082 13.5832ZM18.792 13.5649C18.9276 13.309 18.9999 12.8793 18.9999 12.2761V2.72395C18.9999 2.1298 18.9276 1.70018 18.792 1.44424L12.7239 7.49543L18.792 13.5649ZM2.73107 15H16.513C17.2455 15 17.752 14.8537 18.0414 14.5795L11.8467 8.3638L11.286 8.93053C10.6982 9.49726 10.1375 9.77148 9.51354 9.77148C8.88955 9.77148 8.32887 9.49726 7.74105 8.93053L7.18037 8.3638L1.0038 14.5612C1.32936 14.8537 1.90813 15 2.73107 15Z" fill="#F08A01"/>
</svg>
