<svg width="15" height="15" viewBox="0 0 15 15" fill="none" xmlns="http://www.w3.org/2000/svg">
<path d="M4.11331 10.8536C6.45042 13.1939 9.29745 15 11.6176 15C12.6629 15 13.5807 14.6354 14.3116 13.8214C14.7365 13.3465 15 12.7954 15 12.2527C15 11.8372 14.847 11.4387 14.4561 11.1673L11.983 9.42058C11.6091 9.14924 11.2861 9.02205 10.9972 9.02205C10.6317 9.02205 10.3003 9.23403 9.93484 9.59864L9.35694 10.1668C9.26346 10.26 9.15297 10.2855 9.05099 10.2855C8.92351 10.2855 8.80453 10.2431 8.71955 10.2007C8.22663 9.93782 7.36827 9.20011 6.56941 8.41153C5.77904 7.61447 5.03966 6.76653 4.7762 6.26625C4.73371 6.18146 4.69122 6.06275 4.69122 5.94404C4.69122 5.84228 4.71671 5.73205 4.8102 5.63878L5.3796 5.0537C5.74504 4.68909 5.95751 4.35839 5.95751 3.9853C5.95751 3.697 5.82153 3.38327 5.55807 3.0017L3.82436 0.568118C3.53541 0.178067 3.12748 0 2.68555 0C2.15014 0 1.60623 0.245902 1.13031 0.695308C0.339943 1.44997 0 2.37422 0 3.40023C0 5.72357 1.7762 8.53024 4.11331 10.8536Z" fill="#F08A01"/>
</svg>
