<svg width="15" height="15" viewBox="0 0 15 15" fill="none" xmlns="http://www.w3.org/2000/svg">
<path d="M6.14933 12.1828C7.44966 12.1828 8.65772 11.7756 9.65604 11.0859L13.3221 14.7175C13.5151 14.9086 13.7668 15 14.0352 15C14.5973 15 15 14.5679 15 14.0194C15 13.7618 14.9161 13.5208 14.7232 13.3296L11.0822 9.71468C11.8456 8.70083 12.2987 7.44598 12.2987 6.09141C12.2987 2.73407 9.5302 0 6.14933 0C2.76846 0 0 2.72576 0 6.09141C0 9.44044 2.76007 12.1828 6.14933 12.1828ZM6.14933 10.7618C3.55705 10.7618 1.42617 8.65097 1.42617 6.09141C1.42617 3.53186 3.55705 1.42105 6.14933 1.42105C8.73322 1.42105 10.8641 3.53186 10.8641 6.09141C10.8641 8.65097 8.73322 10.7618 6.14933 10.7618Z" fill="#F08A01"/>
</svg>
