<svg width="27" height="29" viewBox="0 0 27 29" fill="none" xmlns="http://www.w3.org/2000/svg">
<path d="M13.3477 26.3516C19.5586 26.3516 24.7031 21.207 24.7031 14.9961C24.7031 8.78516 19.5469 3.64062 13.3359 3.64062C7.125 3.64062 1.98047 8.78516 1.98047 14.9961C1.98047 21.207 7.13672 26.3516 13.3477 26.3516ZM7.61719 16.2617C7.16016 16.2617 6.80859 15.9102 6.80859 15.4414C6.80859 14.9961 7.16016 14.6445 7.61719 14.6445H12.5273V8.04688C12.5273 7.60156 12.8789 7.23828 13.3359 7.23828C13.793 7.23828 14.1445 7.60156 14.1445 8.04688V15.4414C14.1445 15.9102 13.793 16.2617 13.3359 16.2617H7.61719Z" fill="#F08A01"/>
</svg>
