<svg width="45" height="45" viewBox="0 0 45 45" fill="none" xmlns="http://www.w3.org/2000/svg">
<path d="M22.5 45C10.0755 45 0 34.9245 0 22.5C0 10.0755 10.0755 0 22.5 0C34.9245 0 45 10.0755 45 22.5C45 34.9245 34.9245 45 22.5 45Z" fill="#D9D9D9"/>
<path d="M27.9825 45V27.663H33.8796L34.7641 20.9081H27.9825V16.5929C27.9825 14.6367 28.5314 13.3027 31.3756 13.3027H35V7.26411C34.374 7.18353 32.2193 7 29.7154 7C24.4897 7 20.9106 10.1469 20.9106 15.9304V20.9126H15V27.6674H20.9106V45H27.9825Z" fill="#3A3A3A"/>
</svg>
