<svg width="45" height="45" viewBox="0 0 45 45" fill="none" xmlns="http://www.w3.org/2000/svg">
<path d="M22.5 45C10.0755 45 0 34.9245 0 22.5C0 10.0755 10.0755 0 22.5 0C34.9245 0 45 10.0755 45 22.5C45 34.9245 34.9245 45 22.5 45Z" fill="#D9D9D9"/>
<path d="M22.5 9.79259C26.6361 9.79259 27.1264 9.80621 28.7608 9.8834C30.2727 9.95152 31.0945 10.2058 31.6393 10.4192C32.3612 10.7007 32.8787 11.0368 33.419 11.5771C33.9593 12.1175 34.2953 12.6351 34.5767 13.3571C34.7901 13.902 35.0398 14.7239 35.1125 16.236C35.1851 17.8707 35.2033 18.3611 35.2033 22.4977C35.2033 26.6344 35.1897 27.1248 35.1125 28.7595C35.0444 30.2716 34.7901 31.0935 34.5767 31.6383C34.2953 32.3603 33.9593 32.878 33.419 33.4183C32.8787 33.9587 32.3612 34.2947 31.6393 34.5762C31.0945 34.7897 30.2727 35.0394 28.7608 35.1121C27.1264 35.1847 26.6361 35.2029 22.5 35.2029C18.3639 35.2029 17.8736 35.1892 16.2392 35.1121C14.7273 35.0439 13.9055 34.7897 13.3607 34.5762C12.6388 34.2947 12.1213 33.9587 11.581 33.4183C11.0407 32.878 10.7047 32.3603 10.4233 31.6383C10.2099 31.0935 9.96016 30.2716 9.88752 28.7595C9.81488 27.1248 9.79672 26.6344 9.79672 22.4977C9.79672 18.3611 9.81034 17.8707 9.88752 16.236C9.95562 14.7239 10.2099 13.902 10.4233 13.3571C10.7047 12.6351 11.0407 12.1175 11.581 11.5771C12.1213 11.0368 12.6388 10.7007 13.3607 10.4192C13.9055 10.2058 14.7273 9.95606 16.2392 9.8834C17.8736 9.80621 18.3639 9.79259 22.5 9.79259ZM22.5 7C18.2913 7 17.7646 7.01816 16.112 7.09536C14.464 7.17255 13.338 7.43138 12.3483 7.81734C11.3313 8.20785 10.4641 8.73912 9.60603 9.60188C8.74341 10.4646 8.21675 11.3274 7.81722 12.3491C7.43585 13.3344 7.17252 14.4605 7.09534 16.1134C7.01816 17.7662 7 18.293 7 22.5023C7 26.7116 7.01816 27.2383 7.09534 28.8912C7.17252 30.5395 7.43131 31.6656 7.81722 32.6555C8.21221 33.6681 8.74341 34.5354 9.60603 35.3936C10.4687 36.2563 11.3313 36.7831 12.3528 37.1827C13.338 37.5641 14.464 37.8274 16.1166 37.9046C17.7692 37.9818 18.2958 38 22.5045 38C26.7132 38 27.2399 37.9818 28.8925 37.9046C30.5406 37.8274 31.6665 37.5686 32.6563 37.1827C33.6687 36.7876 34.5359 36.2563 35.394 35.3936C36.2566 34.5308 36.7832 33.6681 37.1828 32.6464C37.5641 31.6611 37.8275 30.5349 37.9047 28.8821C37.9818 27.2292 38 26.7025 38 22.4932C38 18.2839 37.9818 17.7571 37.9047 16.1043C37.8275 14.456 37.5687 13.3299 37.1828 12.34C36.7878 11.3274 36.2566 10.4601 35.394 9.60188C34.5313 8.73912 33.6687 8.21239 32.6472 7.8128C31.662 7.43138 30.536 7.16801 28.8834 7.09082C27.2354 7.01816 26.7087 7 22.5 7Z" fill="#3A3A3A"/>
<path d="M23 15C18.5824 15 15 18.5824 15 23C15 27.4176 18.5824 31 23 31C27.4176 31 31 27.4176 31 23C31 18.5824 27.4176 15 23 15ZM23 28.1934C20.1341 28.1934 17.8066 25.8705 17.8066 23C17.8066 20.1295 20.1341 17.8066 23 17.8066C25.8659 17.8066 28.1934 20.1295 28.1934 23C28.1934 25.8705 25.8659 28.1934 23 28.1934Z" fill="#3A3A3A"/>
<path d="M31 16C32.1046 16 33 15.1046 33 14C33 12.8954 32.1046 12 31 12C29.8954 12 29 12.8954 29 14C29 15.1046 29.8954 16 31 16Z" fill="#3A3A3A"/>
</svg>
