<svg width="45" height="45" viewBox="0 0 45 45" fill="none" xmlns="http://www.w3.org/2000/svg">
<path d="M22.5 45C10.0755 45 0 34.9245 0 22.5C0 10.0755 10.0755 0 22.5 0C34.9245 0 45 10.0755 45 22.5C45 34.9245 34.9245 45 22.5 45Z" fill="#D9D9D9"/>
<path d="M37.3075 15.2185C37.5145 14.5138 37.3075 14 36.3127 14H33.0313C32.1986 14 31.8115 14.4456 31.6044 14.9366C31.6044 14.9366 29.9345 19.0467 27.5713 21.7156C26.8061 22.4885 26.4595 22.734 26.0409 22.734C25.8339 22.734 25.5323 22.4885 25.5323 21.7838V15.2185C25.5323 14.3774 25.2892 14 24.596 14H19.4376C18.9155 14 18.6004 14.391 18.6004 14.7638C18.6004 15.564 19.7842 15.7459 19.9057 17.9965V22.8795C19.9057 23.948 19.7122 24.1435 19.2981 24.1435C18.1863 24.1435 15.481 20.0152 13.8741 15.2912C13.559 14.3728 13.2439 14.0045 12.4067 14.0045H9.12531C8.18905 14.0045 8 14.4501 8 14.9411C8 15.8186 9.1118 20.1743 13.1809 25.9348C15.8952 29.8676 19.7122 32 23.1916 32C25.2757 32 25.5368 31.5272 25.5368 30.7088V27.7353C25.5368 26.7896 25.7348 26.5986 26.3965 26.5986C26.8826 26.5986 27.7199 26.8442 29.6644 28.7401C31.888 30.9861 32.2571 31.9955 33.5084 31.9955H36.7898C37.7261 31.9955 38.1942 31.5226 37.9242 30.586C37.6271 29.654 36.5648 28.3036 35.1559 26.6987C34.3907 25.7848 33.2429 24.8027 32.8963 24.3117C32.4101 23.6797 32.5497 23.3978 32.8963 22.8386C32.8918 22.8386 36.8889 17.1508 37.3075 15.2185Z" fill="#3A3A3A"/>
</svg>
