<svg width="120" height="43" viewBox="0 0 120 43" fill="none" xmlns="http://www.w3.org/2000/svg">
<path d="M0 0H43V3.71875H26.9272V7H16.0728V3.71875H0V0Z" fill="#625F5B"/>
<path d="M0 43H43V39.2813H26.9272V36H16.0728V39.2813H0V43Z" fill="#625F5B"/>
<path d="M0 5H15.0291V8.13953H27.9709V5H43V32H0V5Z" fill="#DEA85D"/>
<path d="M0 38H15.0291V34.7984H27.9709V38H43V11H0V38Z" fill="#DEA85D"/>
<rect x="43" y="17" width="77" height="2" fill="#625F5B"/>
<path d="M53.7657 0.331951H57.0371V14.7095H53.7657V8.60996H48.2714V14.7095H45V0.331951H48.2714V5.82988H53.7657V0.331951Z" fill="#625F5B"/>
<path d="M62.5183 7.51037C62.5183 8.21577 62.6022 8.85201 62.77 9.41909C62.9517 9.98617 63.2034 10.4772 63.5249 10.8921C63.8605 11.2932 64.2659 11.6044 64.7412 11.8257C65.2166 12.047 65.7618 12.1577 66.3769 12.1577C66.9781 12.1577 67.5163 12.047 67.9917 11.8257C68.481 11.6044 68.8864 11.2932 69.208 10.8921C69.5435 10.4772 69.7952 9.98617 69.9629 9.41909C70.1447 8.85201 70.2355 8.21577 70.2355 7.51037C70.2355 6.80498 70.1447 6.16874 69.9629 5.60166C69.7952 5.02075 69.5435 4.52974 69.208 4.12863C68.8864 3.71369 68.481 3.39557 67.9917 3.17427C67.5163 2.95297 66.9781 2.84232 66.3769 2.84232C65.7618 2.84232 65.2166 2.95989 64.7412 3.19502C64.2659 3.41632 63.8605 3.73444 63.5249 4.14938C63.2034 4.55048 62.9517 5.04149 62.77 5.62241C62.6022 6.18949 62.5183 6.81881 62.5183 7.51037ZM73.6118 7.51037C73.6118 8.74136 73.4231 9.82711 73.0456 10.7676C72.6821 11.6943 72.1788 12.4758 71.5357 13.112C70.8926 13.7344 70.1237 14.2047 69.2289 14.5228C68.3482 14.8409 67.3975 15 66.3769 15C65.3843 15 64.4476 14.8409 63.5669 14.5228C62.6861 14.2047 61.9172 13.7344 61.2601 13.112C60.603 12.4758 60.0857 11.6943 59.7083 10.7676C59.3308 9.82711 59.1421 8.74136 59.1421 7.51037C59.1421 6.27939 59.3378 5.20055 59.7292 4.27386C60.1207 3.33333 60.645 2.54495 61.302 1.90871C61.9731 1.27248 62.742 0.795298 63.6088 0.477179C64.4896 0.15906 65.4123 0 66.3769 0C67.3696 0 68.3062 0.15906 69.187 0.477179C70.0678 0.795298 70.8367 1.27248 71.4938 1.90871C72.1509 2.54495 72.6681 3.33333 73.0456 4.27386C73.4231 5.20055 73.6118 6.27939 73.6118 7.51037Z" fill="#625F5B"/>
<path d="M80.0716 0.165975C82.2385 0.165975 83.9022 0.546335 85.0626 1.30705C86.223 2.05394 86.8032 3.28492 86.8032 5C86.8032 6.72891 86.216 7.98064 85.0416 8.75519C83.8673 9.51591 82.1896 9.89627 80.0087 9.89627H78.9811V14.7095H75.7097V0.53942C76.4227 0.401107 77.1776 0.304288 77.9745 0.248963C78.7714 0.193638 79.4704 0.165975 80.0716 0.165975ZM80.2813 2.92531C80.0436 2.92531 79.806 2.93223 79.5683 2.94606C79.3446 2.95989 79.1489 2.97372 78.9811 2.98755V7.13693H80.0087C81.1411 7.13693 81.9939 6.98479 82.5671 6.6805C83.1403 6.37621 83.4269 5.80913 83.4269 4.97925C83.4269 4.57815 83.35 4.2462 83.1962 3.9834C83.0564 3.72061 82.8467 3.51314 82.5671 3.361C82.3015 3.19502 81.9729 3.08437 81.5815 3.02905C81.19 2.95989 80.7566 2.92531 80.2813 2.92531Z" fill="#625F5B"/>
<path d="M92.4349 0.331951C92.6866 0.788382 92.9732 1.35546 93.2947 2.0332C93.6302 2.6971 93.9728 3.42324 94.3223 4.21162C94.6858 4.98617 95.0423 5.78147 95.3918 6.59751C95.7413 7.41356 96.0698 8.18119 96.3774 8.90042C96.685 8.18119 97.0135 7.41356 97.363 6.59751C97.7125 5.78147 98.062 4.98617 98.4115 4.21162C98.775 3.42324 99.1176 2.6971 99.4391 2.0332C99.7746 1.35546 100.068 0.788382 100.32 0.331951H103.298C103.438 1.28631 103.563 2.35823 103.675 3.54772C103.801 4.72338 103.906 5.95436 103.99 7.24066C104.088 8.51314 104.171 9.79253 104.241 11.0788C104.325 12.3651 104.395 13.5754 104.451 14.7095H101.264C101.222 13.3126 101.166 11.7911 101.096 10.1452C101.026 8.49931 100.921 6.83956 100.781 5.16598C100.53 5.74689 100.25 6.39004 99.9424 7.09544C99.6348 7.80083 99.3273 8.50622 99.0197 9.21162C98.7261 9.91701 98.4395 10.5947 98.1599 11.2448C97.8803 11.8811 97.6426 12.4274 97.4469 12.8838H95.1611C94.9654 12.4274 94.7277 11.8811 94.4481 11.2448C94.1685 10.5947 93.8749 9.91701 93.5673 9.21162C93.2737 8.50622 92.9732 7.80083 92.6656 7.09544C92.358 6.39004 92.0784 5.74689 91.8268 5.16598C91.687 6.83956 91.5821 8.49931 91.5122 10.1452C91.4423 11.7911 91.3864 13.3126 91.3444 14.7095H88.1569C88.2128 13.5754 88.2757 12.3651 88.3456 11.0788C88.4295 9.79253 88.5134 8.51314 88.5973 7.24066C88.6952 5.95436 88.8 4.72338 88.9119 3.54772C89.0377 2.35823 89.1705 1.28631 89.3103 0.331951H92.4349Z" fill="#625F5B"/>
<path d="M116.498 14.7095C116.344 14.2116 116.169 13.6999 115.974 13.1743C115.792 12.6487 115.61 12.1231 115.428 11.5975H109.766C109.585 12.1231 109.396 12.6487 109.2 13.1743C109.018 13.6999 108.851 14.2116 108.697 14.7095H105.3C105.845 13.1604 106.362 11.7289 106.851 10.4149C107.341 9.10097 107.816 7.86307 108.277 6.70124C108.753 5.53942 109.214 4.43983 109.661 3.40249C110.123 2.35131 110.598 1.3278 111.087 0.331951H114.212C114.687 1.3278 115.156 2.35131 115.617 3.40249C116.078 4.43983 116.54 5.53942 117.001 6.70124C117.477 7.86307 117.959 9.10097 118.448 10.4149C118.937 11.7289 119.455 13.1604 120 14.7095H116.498ZM112.576 3.58921C112.506 3.79668 112.402 4.08022 112.262 4.43983C112.122 4.79945 111.961 5.21439 111.78 5.68465C111.598 6.15491 111.395 6.67358 111.171 7.24066C110.962 7.80775 110.745 8.40249 110.521 9.0249H114.652C114.429 8.40249 114.212 7.80775 114.002 7.24066C113.793 6.67358 113.59 6.15491 113.394 5.68465C113.213 5.21439 113.052 4.79945 112.912 4.43983C112.772 4.08022 112.66 3.79668 112.576 3.58921Z" fill="#625F5B"/>
<path d="M49.3384 26.2988V29.61H50.8233C52.318 29.61 53.6477 29.7261 54.8123 29.9585C55.9964 30.1909 56.9864 30.5685 57.7822 31.0913C58.5975 31.6141 59.2187 32.2918 59.6457 33.1245C60.0728 33.9571 60.2863 34.9737 60.2863 36.1743C60.2863 38.4011 59.471 40.0664 57.8405 41.1701C56.2294 42.2545 53.9194 42.7967 50.9107 42.7967C50.0954 42.7967 49.1637 42.7483 48.1155 42.6515C47.0867 42.5546 46.0482 42.3804 45 42.1286V22.4647H58.3937V26.2988H49.3384ZM51.1436 38.9336C51.7454 38.9336 52.318 38.8949 52.8615 38.8174C53.405 38.74 53.8806 38.6044 54.2882 38.4108C54.7153 38.1978 55.055 37.917 55.3073 37.5685C55.5597 37.2199 55.6858 36.7649 55.6858 36.2033C55.6858 35.6224 55.5694 35.148 55.3364 34.7801C55.1035 34.4122 54.7735 34.1217 54.3465 33.9087C53.9194 33.6957 53.3953 33.5505 52.7742 33.473C52.153 33.3956 51.4542 33.3568 50.6778 33.3568H49.3384V38.8755C49.5519 38.8949 49.8043 38.9142 50.0954 38.9336C50.406 38.9336 50.7554 38.9336 51.1436 38.9336Z" fill="#625F5B"/>
<path d="M69.9935 22.2324C73.0023 22.2324 75.3122 22.7649 76.9233 23.8299C78.5344 24.8755 79.34 26.5989 79.34 29C79.34 31.4205 78.5247 33.1729 76.8942 34.2573C75.2637 35.3223 72.9343 35.8548 69.9062 35.8548H68.4795V42.5934H63.9373V22.7552C64.9272 22.5615 65.9754 22.426 67.0819 22.3485C68.1883 22.2711 69.1589 22.2324 69.9935 22.2324ZM70.2847 26.0954C69.9547 26.0954 69.6247 26.1051 69.2947 26.1245C68.9842 26.1438 68.7124 26.1632 68.4795 26.1826V31.9917H69.9062C71.4785 31.9917 72.6626 31.7787 73.4584 31.3527C74.2543 30.9267 74.6522 30.1328 74.6522 28.971C74.6522 28.4094 74.5455 27.9447 74.3319 27.5768C74.1378 27.2089 73.8466 26.9184 73.4584 26.7054C73.0896 26.473 72.6335 26.3181 72.0899 26.2407C71.5464 26.1438 70.9447 26.0954 70.2847 26.0954Z" fill="#625F5B"/>
<path d="M93.4195 36.6971C92.8566 37.9751 92.2646 39.0304 91.6434 39.8631C91.0223 40.6763 90.3817 41.3154 89.7217 41.7801C89.0617 42.2448 88.392 42.5643 87.7127 42.7386C87.0333 42.9129 86.3442 43 85.6454 43C84.9854 43 84.2963 42.9322 83.5781 42.7967C82.8793 42.6805 82.2193 42.5062 81.5981 42.2739L82.4134 38.6432C83.3646 38.9917 84.306 39.166 85.2377 39.166C85.8395 39.166 86.4121 39.0304 86.9556 38.7593C87.5185 38.4882 88.0523 37.9073 88.557 37.0166C87.7612 35.7773 86.9944 34.509 86.2568 33.2116C85.5386 31.8949 84.8495 30.6072 84.1895 29.3485C83.549 28.0705 82.9472 26.8506 82.3843 25.6888C81.8408 24.5076 81.3555 23.4329 80.9285 22.4647H85.9657C86.2762 23.2199 86.6159 24.0332 86.9847 24.9046C87.373 25.7566 87.7806 26.6473 88.2076 27.5768C88.6347 28.4869 89.0617 29.4066 89.4888 30.3361C89.9352 31.2462 90.3623 32.1369 90.7699 33.0083C91.3911 31.3043 91.9831 29.5615 92.546 27.7801C93.109 25.9986 93.6525 24.2268 94.1766 22.4647H99.0391C98.5344 23.9557 98.0394 25.3499 97.5541 26.6473C97.0688 27.9447 96.5933 29.1743 96.1274 30.3361C95.6615 31.4979 95.1957 32.6017 94.7298 33.6473C94.2833 34.6929 93.8466 35.7095 93.4195 36.6971Z" fill="#625F5B"/>
<path d="M110.245 43C106.964 43 104.46 42.0899 102.733 40.2697C101.025 38.4495 100.171 35.8645 100.171 32.5145C100.171 30.8492 100.433 29.3679 100.957 28.0705C101.481 26.7538 102.199 25.6501 103.111 24.7593C104.024 23.8492 105.111 23.1618 106.372 22.6971C107.634 22.2324 109.003 22 110.478 22C111.332 22 112.108 22.0678 112.807 22.2033C113.506 22.3195 114.117 22.4647 114.642 22.639C115.166 22.7939 115.602 22.9585 115.952 23.1328C116.301 23.3071 116.554 23.4426 116.709 23.5394L115.399 27.1992C114.777 26.87 114.049 26.5892 113.215 26.3568C112.4 26.1245 111.468 26.0083 110.42 26.0083C109.721 26.0083 109.032 26.1245 108.352 26.3568C107.692 26.5892 107.1 26.9668 106.576 27.4896C106.072 27.9931 105.664 28.6515 105.353 29.4647C105.043 30.278 104.887 31.2656 104.887 32.4274C104.887 33.3568 104.984 34.2282 105.179 35.0415C105.392 35.8354 105.722 36.5228 106.169 37.1037C106.634 37.6846 107.236 38.1494 107.974 38.4979C108.711 38.8271 109.604 38.9917 110.653 38.9917C111.313 38.9917 111.905 38.953 112.429 38.8755C112.953 38.7981 113.419 38.7109 113.826 38.6141C114.234 38.4979 114.593 38.3721 114.904 38.2365C115.214 38.101 115.496 37.9751 115.748 37.8589L117 41.4896C116.359 41.8769 115.457 42.2254 114.292 42.5353C113.127 42.8451 111.778 43 110.245 43Z" fill="#625F5B"/>
</svg>
